# xmcd CD database file
#
# Track frame offsets:
#	150
#	9632
#	33340
#	64747
#	100330
#	130327
#	152990
#	177847
#	197692
#	220962
#	258297
#
# Disc length: 3944 seconds
#
# Revision: 0
# Processed by: cddbd v1.5.2PL0 Copyright (c) Steve Scherf et al.
# Submitted via: CDex 1.70beta3
#
DISCID=980f660b
DTITLE=Honda Tamaya - Planet X
DYEAR=2000
DGENRE=Jazz
TTITLE0=Planet X
TTITLE1=Loud Mouth
TTITLE2=Double Trouble
TTITLE3=Out of the Town
TTITLE4=Masqualero
TTITLE5=Camellia
TTITLE6=Hobbies
TTITLE7=Snake Oil
TTITLE8=Shuttle Boil
TTITLE9=Betty on the Bed
TTITLE10=Planet X -Full Length-
EXTD=YEAR: 2000
EXTT0=
EXTT1=
EXTT2=
EXTT3=
EXTT4=
EXTT5=
EXTT6=
EXTT7=
EXTT8=
EXTT9=
EXTT10=
PLAYORDER=
